<?xml version="1.0" encoding="UTF-8"?>
<svg id="Layer_1" data-name="Layer 1" xmlns="http://www.w3.org/2000/svg" viewBox="0 0 650.5 243.16">
  <defs>
    <style>
      .cls-1 {
        fill: #3c3c3b;
      }

      .cls-2 {
        fill: #e74e0f;
      }

      .cls-3 {
        fill: #6f6f6e;
      }
    </style>
  </defs>
  <path class="cls-2" d="M20,197.1H0v45.5h20c10.6,0,19.1-8.6,19.1-19.1v-7.2c.1-10.6-8.5-19.2-19.1-19.2h0ZM28.7,223.5c0,5.9-4.8,10.7-10.7,10.7h-6.9v-28h6.9c5.9,0,10.7,4.8,10.7,10.7v6.6h0Z"/>
  <path class="cls-2" d="M46.1,197.1v34.5c0,6.1,5,11.1,11.1,11.1h19.9v-8.9h-20.4v-9.9h17.1v-8.8h-17.1v-8.9h19.1v-9.1h-29.7Z"/>
  <path class="cls-2" d="M160.5,197.1h-3.2c-10.7,0-19.4,8.7-19.4,19.4v7.1c0,10.7,8.7,19.4,19.4,19.4h3.2c10.7,0,19.4-8.7,19.4-19.4v-7.1c0-10.7-8.7-19.4-19.4-19.4ZM168.7,225.1c0,5.3-4.3,9.6-9.6,9.6h-.2c-5.3,0-9.6-4.3-9.6-9.6v-9.2c0-5.3,4.3-9.6,9.6-9.6h.2c5.3,0,9.6,4.3,9.6,9.6v9.2Z"/>
  <path class="cls-2" d="M452.4,197.1h-3.2c-10.7,0-19.4,8.7-19.4,19.4v7.1c0,10.7,8.7,19.4,19.4,19.4h3.2c10.7,0,19.4-8.7,19.4-19.4v-7.1c0-10.7-8.7-19.4-19.4-19.4ZM460.6,225.1c0,5.3-4.3,9.6-9.6,9.6h-.2c-5.3,0-9.6-4.3-9.6-9.6v-9.2c0-5.3,4.3-9.6,9.6-9.6h.2c5.3,0,9.6,4.3,9.6,9.6v9.2Z"/>
  <polygon class="cls-2" points="224.2 197.1 224.2 242.9 214.2 242.9 214.2 243 197.6 215 197.6 242.9 187.6 242.9 187.6 197.1 197.6 197.1 197.6 197.1 214.2 225.6 214.2 197.1 224.2 197.1"/>
  <path class="cls-2" d="M232.5,240.7v-8.4s21.7,5,21.6-2.3c-.2-7.3-20.5-5.4-21.6-16.1s5.2-21.6,30.1-15.7v8.6s-22.5-6.4-19,4.7c2.5,6.4,21.3,1.9,21.4,15.2.1,13.5-9.3,20.5-32.5,14h0Z"/>
  <polygon class="cls-2" points="304.1 197.1 304.1 206 291.7 206 291.7 242.9 281.6 242.9 281.6 206 269 206 269 197.1 304.1 197.1"/>
  <polygon class="cls-2" points="426.4 197.1 426.4 206 414 206 414 242.9 403.9 242.9 403.9 206 391.3 206 391.3 197.1 426.4 197.1"/>
  <path class="cls-2" d="M336,225l1.1-.6c4.5-2.3,6.6-7.5,6.6-12.8v-1.4c0-7.2-5.9-13.1-13.1-13.1h-20.6v45.8h10.4v-14.6h6.5c0,.1,7,8,8.2,14.6h11.6c-.1,0-4.6-13.2-10.7-17.9ZM332.9,213.9c0,3.9-3.1,7-7,7h-5.6v-15.1h5.6c3.9,0,7,3.1,7,7v1.1Z"/>
  <path class="cls-2" d="M504.6,225l1.1-.6c4.5-2.3,6.6-7.5,6.6-12.8v-1.4c0-7.2-5.9-13.1-13.1-13.1h-20.6v45.8h10.4v-14.6h6.5c0,.1,7,8,8.2,14.6h11.6c-.1,0-4.5-13.2-10.7-17.9ZM501.5,213.9c0,3.9-3.1,7-7,7h-5.6v-15.1h5.6c3.9,0,7,3.1,7,7v1.1Z"/>
  <path class="cls-2" d="M376.5,197.1h-13.1c-3.3,6.6-14.8,45.8-14.8,45.8h10.7l2.5-10.6h15.3l2.8,10.6h11.4c-2.2-13.4-14.8-45.8-14.8-45.8ZM364,223.6l5.4-17.8,5.4,17.8h-10.8Z"/>
  <path class="cls-2" d="M594.7,197.1h-13.1c-3.3,6.6-14.8,45.8-14.8,45.8h10.7l2.5-10.6h15.3l2.8,10.6h11.4c-2.2-13.4-14.8-45.8-14.8-45.8h0ZM582.2,223.6l5.4-17.8,5.4,17.8h-10.8Z"/>
  <path class="cls-2" d="M564.6,233.3v9.6h-18.9c-5.1,0-9.3-4.2-9.3-9.3v-36.5h11.2v36.2h17Z"/>
  <path class="cls-2" d="M637.8,218.9h.4c3,0,5.7-1.2,7.7-3.2s3.2-4.7,3.2-7.7c0-6-4.9-10.9-10.9-10.9h-21.9v45.8h21.5c6.2,0,11.3-5,11.3-11.3v-1.5c0-6.1-5.1-11.2-11.3-11.2h0ZM626.6,205.8h6.4c2.9,0,5.3,2.4,5.3,5.3s-.6,2.8-1.6,3.8-2.3,1.6-3.8,1.6h-6.4v-10.7h.1ZM637.7,233.1c-1,1-2.3,1.6-3.8,1.6h-7.3v-10.7h7.3c2.9,0,5.3,2.4,5.3,5.3s-.6,2.8-1.5,3.8h0Z"/>
  <path class="cls-2" d="M260.6,96.5l-64.2,36.1c-6.2,3.5-13.8-1-13.8-8.1V52.3c0-7.1,7.6-11.5,13.8-8.1l64.2,36.1c6.3,3.6,6.3,12.7,0,16.2h0Z"/>
  <path class="cls-3" d="M87.9,0H0v174.1h87.8c37,0,67.1-30,67.1-67.1v-40C154.9,30,124.9,0,87.9,0h0ZM114.8,96.2l-56.8,33.7c-6.2,3.7-14-.8-14-8V54.6c0-7.2,7.8-11.6,14-8l56.8,33.7c6.1,3.6,6.1,12.3,0,15.9Z"/>
  <g>
    <path class="cls-1" d="M395.4,142.1v33h-75c-18.7,0-33.9-15.2-33.9-33.9V2.2h38.8v133.4c0,3.6,2.9,6.5,6.5,6.5h63.6Z"/>
    <path class="cls-1" d="M468.2,2.3h-47.8l-50.4,150.8,1.1,22h31.6l10.8-36.5h59.2l11.6,36.5h40.2L468.2,2.3h0ZM423.9,105.1l19.1-61.6,19,61.6h-38.1Z"/>
    <path class="cls-1" d="M650.5,59.6v-21.6c0-19.7-16-35.8-35.8-35.8h-95.8v172.9h93.9c20.8,0,37.6-16.8,37.6-37.5v-18c0-17-12.9-30.9-30-30.9h1.8c16.2,0,28.3-13,28.3-29.1ZM557.2,34.5h48c3.3,0,6,2.7,6,6v26.4c0,3.3-2.7,6-6,6h-48v-38.4ZM611.3,137.6c0,3.3-2.7,6-6,6h-48v-38.5h48c3.3,0,6,2.7,6,6v26.5Z"/>
  </g>
  <polygon class="cls-2" points="131.2 197.5 131.2 242.7 121 242.7 121 214.4 108.9 227.8 106.5 227.8 96.2 214 96.2 242.7 85.9 242.7 85.9 197.5 96.2 197.5 107.8 214.2 121 197.5 131.2 197.5"/>
</svg>